<?xml version="1.0" encoding="utf-8"?>
<!-- Generator: Adobe Illustrator 24.3.0, SVG Export Plug-In . SVG Version: 6.00 Build 0)  -->
<svg version="1.1" id="Calque_1" xmlns="http://www.w3.org/2000/svg" xmlns:xlink="http://www.w3.org/1999/xlink" x="0px" y="0px"
	 viewBox="0 0 90 60" style="enable-background:new 0 0 90 60;" xml:space="preserve">
<style type="text/css">
	.st0{fill:#FFFFFF;stroke:#1D1D1B;stroke-width:3.895831e-02;stroke-miterlimit:10;}
	.st1{fill:#FFFFFF;}
</style>
<g>
	<path class="st0" d="M86.2,59.5"/>
	<g>
		<path class="st1" d="M88.7,59.7c0.7,0,1.2-0.6,1-1.2C87.4,52.2,78,26.2,78,26.2c-0.5-1.4-1.5-3.1-2.8-4c-2.3-1.5-4.7-0.6-6.2,1
			c-1,1.1-1.8,2.3-2.2,3.7l-2.1,6.4l9.6,25.9c0.2,0.4,0.5,0.6,0.9,0.6L88.7,59.7L88.7,59.7z"/>
		<path class="st1" d="M69.8,4.9c-0.2-0.7-0.7-1.3-1.1-1.9c-0.5-0.7-1-1.2-1.8-1.7c-1.3-0.8-2.5-1.2-4-1.2c-2.9,0-5.3,1.5-6.5,4
			c0,0.1-0.2,0.2-0.2,0.3L44.2,36.3L33.3,17.8c0-0.1-0.2-0.2-0.2-0.3c-0.2-0.4-0.5-0.7-0.7-1.1c-0.5-0.7-1.1-1.1-1.8-1.6
			c-0.9-0.5-1.5-0.8-2.5-1c-1.3-0.2-2.9-0.2-4.1,0.3c-0.7,0.3-1.8,0.9-2.3,1.3c-0.6,0.6-1.2,1.3-1.5,2c0,0.1-0.2,0.2-0.2,0.3
			L0.3,58.4c-0.3,0.7,0.3,1.4,1.1,1.4h13.9c0.8,0,1.7-0.7,2-1.4c2.5-5.6,10.1-20.2,10.1-20.2l11.2,17.4c0.1,0.2,0.2,0.4,0.3,0.5
			c0,0.1,0.1,0.1,0.1,0.2c0.4,0.6,0.8,1.2,1.4,1.7c0.1,0.1,0.2,0.2,0.3,0.2c0.7,0.5,1.4,0.9,2.3,1.2c0.7,0.2,1.5,0.4,2.3,0.4l0,0
			l0,0c0.8,0,1.6-0.2,2.3-0.4c0.8-0.3,1.6-0.7,2.2-1.2c0.1-0.1,0.2-0.2,0.3-0.2c1.3-1.2,1.8-2.4,2.5-4.1l10.9-29.3
			c2.3-6.9,6.4-8.8,11.1-7.5C73,13,71.3,9,69.8,4.9z"/>
	</g>
	<path class="st0" d="M45,30"/>
</g>
</svg>
